<svg version="1.1" xmlns="http://www.w3.org/2000/svg" xmlns:xlink="http://www.w3.org/1999/xlink" viewBox="0 0 172 172"><g fill="none" fill-rule="nonzero" stroke="none" stroke-width="1" stroke-linecap="butt" stroke-linejoin="miter" stroke-miterlimit="10" stroke-dasharray="" stroke-dashoffset="0" font-family="none" font-weight="none" font-size="none" text-anchor="none" style="mix-blend-mode: normal"><path d="M0,172v-172h172v172z" fill="none"></path><g fill="#ffffff"><path d="M98.65015,25.53387c-3.39874,-0.14697 -6.72032,0.83617 -9.42462,2.95258c-3.09063,2.41875 -5.24168,5.91355 -5.77918,9.81042l-0.80572,5.375c-2.28437,16.93125 -11.68958,32.11562 -25.79895,41.65625c-1.88125,1.20938 -2.28542,3.76145 -1.07605,5.6427c1.20938,1.88125 3.76145,2.28542 5.6427,1.07605c15.99062,-10.88438 26.6073,-28.08333 29.2948,-47.29895l0.80572,-5.375c0.26875,-1.74688 1.2099,-3.36042 2.55365,-4.43542c1.47812,-1.075 3.22395,-1.47812 4.97083,-1.34375c3.62812,0.5375 6.1823,3.89635 5.77917,7.52447l-0.80572,5.375c-0.67187,4.97187 -1.88125,9.9448 -3.35937,14.51355l-4.56928,12.89947c-0.40313,1.20937 -0.26822,2.55208 0.53803,3.62708c0.80625,1.075 2.01563,1.74792 3.35938,1.74792h25.12707c2.82187,0 5.37553,1.20937 7.25678,3.35938c1.74687,2.15 2.55312,4.97083 2.01563,7.65833l-8.60053,48.375c-0.80625,4.43437 -4.70365,7.7948 -9.2724,7.7948h-40.17603c-5.375,0 -10.75105,-0.9401 -15.8573,-2.82135c-2.15,-0.80625 -4.4349,0.26718 -5.24115,2.41718c-0.80625,2.15 0.2698,4.4349 2.4198,5.24115c5.9125,2.28438 12.22865,3.35938 18.67865,3.35938h40.04218c8.46563,0 15.72293,-6.04583 17.20105,-14.37708l8.60052,-48.375c0.94063,-5.24063 -0.40417,-10.48282 -3.76355,-14.3797c-3.35937,-4.03125 -8.19688,-6.31458 -13.4375,-6.31458l-19.48437,0.13385l2.6875,-7.52447c1.74688,-5.24063 2.9573,-10.61563 3.76355,-16.125l0.80573,-5.375c0.5375,-3.89688 -0.53698,-7.79322 -2.82135,-10.88385c-2.28437,-3.09063 -5.91355,-5.24168 -9.81042,-5.77918c-0.48711,-0.06719 -0.97369,-0.11023 -1.45923,-0.13123zM22.84375,88.6875c-2.28438,0 -4.03125,1.74688 -4.03125,4.03125c0,2.28437 1.74687,4.03125 4.03125,4.03125h16.125v49.71875h-16.125c-2.28438,0 -4.03125,1.74687 -4.03125,4.03125c0,2.28438 1.74687,4.03125 4.03125,4.03125h20.15625c2.28438,0 4.03125,-1.74687 4.03125,-4.03125v-57.78125c0,-2.28437 -1.74687,-4.03125 -4.03125,-4.03125z"></path></g></g></svg>